<svg width="33" height="29" viewBox="0 0 33 29" fill="none" xmlns="http://www.w3.org/2000/svg">
<path d="M13.4 0.799996L8.4 21.1L7.2 15.3C9.13333 15.3 10.7333 15.9 12 17.1C13.2667 18.3 13.9 19.9 13.9 21.9C13.9 23.9 13.2667 25.5333 12 26.8C10.7333 28.0667 9.16667 28.7 7.3 28.7C5.36667 28.7 3.76667 28.0667 2.5 26.8C1.23333 25.4667 0.6 23.8333 0.6 21.9C0.6 21.2333 0.633334 20.6 0.7 20C0.833334 19.4 1.03333 18.7 1.3 17.9C1.56667 17.0333 1.93333 16 2.4 14.8L7.1 0.799996H13.4ZM32.3 0.799996L27.3 21.1L26.1 15.3C28.0333 15.3 29.6333 15.9 30.9 17.1C32.1667 18.3 32.8 19.9 32.8 21.9C32.8 23.9 32.1667 25.5333 30.9 26.8C29.6333 28.0667 28.0667 28.7 26.2 28.7C24.2667 28.7 22.6667 28.0667 21.4 26.8C20.1333 25.4667 19.5 23.8333 19.5 21.9C19.5 21.2333 19.5333 20.6 19.6 20C19.7333 19.4 19.9333 18.7 20.2 17.9C20.4667 17.0333 20.8333 16 21.3 14.8L26 0.799996H32.3Z" fill="black"/>
</svg>
