<svg width="656" height="360" viewBox="0 0 656 360" fill="none" xmlns="http://www.w3.org/2000/svg">
<ellipse cx="3.66123" cy="271.68" rx="3.66123" ry="3.68" fill="#673BB7" fill-opacity="0.5"/>
<ellipse cx="3.66123" cy="292.84" rx="3.66123" ry="3.68" fill="#673BB7" fill-opacity="0.5"/>
<ellipse cx="3.66123" cy="314" rx="3.66123" ry="3.68" fill="#673BB7" fill-opacity="0.5"/>
<ellipse cx="3.66123" cy="335.16" rx="3.66123" ry="3.68" fill="#673BB7" fill-opacity="0.5"/>
<ellipse cx="4.11826" cy="356.32" rx="3.66123" ry="3.68" fill="#673BB7" fill-opacity="0.5"/>
<ellipse cx="24.714" cy="271.68" rx="3.66123" ry="3.68" fill="#673BB7" fill-opacity="0.5"/>
<ellipse cx="24.714" cy="292.84" rx="3.66123" ry="3.68" fill="#673BB7" fill-opacity="0.5"/>
<ellipse cx="24.714" cy="314" rx="3.66123" ry="3.68" fill="#673BB7" fill-opacity="0.5"/>
<ellipse cx="24.714" cy="335.16" rx="3.66123" ry="3.68" fill="#673BB7" fill-opacity="0.5"/>
<ellipse cx="25.171" cy="356.32" rx="3.66123" ry="3.68" fill="#673BB7" fill-opacity="0.5"/>
<ellipse cx="45.7647" cy="271.68" rx="3.66123" ry="3.68" fill="#673BB7" fill-opacity="0.5"/>
<ellipse cx="45.7647" cy="292.84" rx="3.66123" ry="3.68" fill="#673BB7" fill-opacity="0.5"/>
<ellipse cx="45.7647" cy="314" rx="3.66123" ry="3.68" fill="#673BB7" fill-opacity="0.5"/>
<ellipse cx="45.7647" cy="335.16" rx="3.66123" ry="3.68" fill="#673BB7" fill-opacity="0.5"/>
<ellipse cx="46.2218" cy="356.32" rx="3.66123" ry="3.68" fill="#673BB7" fill-opacity="0.5"/>
<ellipse cx="66.8175" cy="271.68" rx="3.66123" ry="3.68" fill="#673BB7" fill-opacity="0.5"/>
<ellipse cx="66.8175" cy="292.84" rx="3.66123" ry="3.68" fill="#673BB7" fill-opacity="0.5"/>
<ellipse cx="66.8175" cy="314" rx="3.66123" ry="3.68" fill="#673BB7" fill-opacity="0.5"/>
<ellipse cx="66.8175" cy="335.16" rx="3.66123" ry="3.68" fill="#673BB7" fill-opacity="0.5"/>
<ellipse cx="67.2745" cy="356.32" rx="3.66123" ry="3.68" fill="#673BB7" fill-opacity="0.5"/>
<ellipse cx="87.8702" cy="271.68" rx="3.66123" ry="3.68" fill="#673BB7" fill-opacity="0.5"/>
<ellipse cx="87.8702" cy="292.84" rx="3.66123" ry="3.68" fill="#673BB7" fill-opacity="0.5"/>
<ellipse cx="87.8702" cy="314" rx="3.66123" ry="3.68" fill="#673BB7" fill-opacity="0.5"/>
<ellipse cx="87.8702" cy="335.16" rx="3.66123" ry="3.68" fill="#673BB7" fill-opacity="0.5"/>
<ellipse cx="88.3272" cy="356.32" rx="3.66123" ry="3.68" fill="#673BB7" fill-opacity="0.5"/>
<ellipse cx="567.661" cy="3.68" rx="3.66123" ry="3.68" fill="#673BB7" fill-opacity="0.5"/>
<ellipse cx="567.661" cy="24.8402" rx="3.66123" ry="3.68" fill="#673BB7" fill-opacity="0.5"/>
<ellipse cx="567.661" cy="45.9998" rx="3.66123" ry="3.68" fill="#673BB7" fill-opacity="0.5"/>
<ellipse cx="567.661" cy="67.16" rx="3.66123" ry="3.68" fill="#673BB7" fill-opacity="0.5"/>
<ellipse cx="568.118" cy="88.3201" rx="3.66123" ry="3.68" fill="#673BB7" fill-opacity="0.5"/>
<ellipse cx="588.714" cy="3.68" rx="3.66123" ry="3.68" fill="#673BB7" fill-opacity="0.5"/>
<ellipse cx="588.714" cy="24.8402" rx="3.66123" ry="3.68" fill="#673BB7" fill-opacity="0.5"/>
<ellipse cx="588.714" cy="45.9998" rx="3.66123" ry="3.68" fill="#673BB7" fill-opacity="0.5"/>
<ellipse cx="588.714" cy="67.16" rx="3.66123" ry="3.68" fill="#673BB7" fill-opacity="0.5"/>
<ellipse cx="589.171" cy="88.3201" rx="3.66123" ry="3.68" fill="#673BB7" fill-opacity="0.5"/>
<ellipse cx="609.765" cy="3.68" rx="3.66123" ry="3.68" fill="#673BB7" fill-opacity="0.5"/>
<ellipse cx="609.765" cy="24.8402" rx="3.66123" ry="3.68" fill="#673BB7" fill-opacity="0.5"/>
<ellipse cx="609.765" cy="45.9998" rx="3.66123" ry="3.68" fill="#673BB7" fill-opacity="0.5"/>
<ellipse cx="609.765" cy="67.16" rx="3.66123" ry="3.68" fill="#673BB7" fill-opacity="0.5"/>
<ellipse cx="610.222" cy="88.3201" rx="3.66123" ry="3.68" fill="#673BB7" fill-opacity="0.5"/>
<ellipse cx="630.818" cy="3.68" rx="3.66123" ry="3.68" fill="#673BB7" fill-opacity="0.5"/>
<ellipse cx="630.818" cy="24.8402" rx="3.66123" ry="3.68" fill="#673BB7" fill-opacity="0.5"/>
<ellipse cx="630.818" cy="45.9998" rx="3.66123" ry="3.68" fill="#673BB7" fill-opacity="0.5"/>
<ellipse cx="630.818" cy="67.16" rx="3.66123" ry="3.68" fill="#673BB7" fill-opacity="0.5"/>
<ellipse cx="631.275" cy="88.3201" rx="3.66123" ry="3.68" fill="#673BB7" fill-opacity="0.5"/>
<ellipse cx="651.87" cy="3.68" rx="3.66123" ry="3.68" fill="#673BB7" fill-opacity="0.5"/>
<ellipse cx="651.87" cy="24.8402" rx="3.66123" ry="3.68" fill="#673BB7" fill-opacity="0.5"/>
<ellipse cx="651.87" cy="45.9998" rx="3.66123" ry="3.68" fill="#673BB7" fill-opacity="0.5"/>
<ellipse cx="651.87" cy="67.16" rx="3.66123" ry="3.68" fill="#673BB7" fill-opacity="0.5"/>
<ellipse cx="652.327" cy="88.3201" rx="3.66123" ry="3.68" fill="#673BB7" fill-opacity="0.5"/>
</svg>
