<svg width="28" height="28" viewBox="0 0 28 28" fill="none" xmlns="http://www.w3.org/2000/svg">
<path d="M14 0C11.2311 0 8.52431 0.821073 6.22202 2.35941C3.91973 3.89775 2.12532 6.08427 1.06569 8.64244C0.00606593 11.2006 -0.271181 14.0155 0.269012 16.7312C0.809205 19.447 2.14257 21.9416 4.1005 23.8995C6.05844 25.8574 8.55299 27.1908 11.2687 27.731C13.9845 28.2712 16.7994 27.9939 19.3576 26.9343C21.9157 25.8747 24.1022 24.0803 25.6406 21.778C27.1789 19.4757 28 16.7689 28 14C27.9958 10.2883 26.5194 6.72978 23.8948 4.10519C21.2702 1.4806 17.7117 0.00424611 14 0Z" fill="#673BB7"/>
<path d="M12.4796 20C12.1164 20.0006 11.7628 19.8857 11.4723 19.6728L11.4543 19.6596L7.66024 16.823C7.30536 16.5571 7.07308 16.1644 7.01452 15.7311C6.95597 15.2978 7.07593 14.8595 7.348 14.5127C7.62006 14.1659 8.02196 13.9389 8.46528 13.8817C8.90859 13.8244 9.357 13.9417 9.71188 14.2076L12.1694 16.0494L17.9765 8.645C18.1111 8.47334 18.2791 8.32928 18.4707 8.22104C18.6623 8.11281 18.8739 8.04251 19.0933 8.01418C19.3127 7.98586 19.5357 8.00005 19.7495 8.05595C19.9633 8.11184 20.1637 8.20836 20.3394 8.33997L20.3399 8.34033L20.3039 8.38923L20.3409 8.34033C20.6952 8.6065 20.9271 8.99918 20.9855 9.43222C21.0439 9.86526 20.9242 10.3033 20.6526 10.6502L13.8221 19.3554C13.6641 19.556 13.4609 19.7183 13.2284 19.8298C12.9958 19.9412 12.7401 19.9988 12.4811 19.9981L12.4796 20Z" fill="white"/>
</svg>
