<svg width="28" height="203" viewBox="0 0 28 203" fill="none" xmlns="http://www.w3.org/2000/svg">
<path d="M14 175C11.2311 175 8.52431 175.821 6.22202 177.359C3.91973 178.898 2.12532 181.084 1.06569 183.642C0.00606593 186.201 -0.271181 189.016 0.269012 191.731C0.809205 194.447 2.14257 196.942 4.1005 198.9C6.05844 200.857 8.55299 202.191 11.2687 202.731C13.9845 203.271 16.7994 202.994 19.3576 201.934C21.9157 200.875 24.1022 199.08 25.6406 196.778C27.1789 194.476 28 191.769 28 189C27.9958 185.288 26.5194 181.73 23.8948 179.105C21.2702 176.481 17.7117 175.004 14 175Z" fill="#673BB7"/>
<path d="M12.4796 195C12.1164 195.001 11.7628 194.886 11.4723 194.673L11.4543 194.66L7.66024 191.823C7.30536 191.557 7.07308 191.164 7.01452 190.731C6.95597 190.298 7.07593 189.86 7.348 189.513C7.62006 189.166 8.02196 188.939 8.46528 188.882C8.90859 188.824 9.357 188.942 9.71188 189.208L12.1694 191.049L17.9765 183.645C18.1111 183.473 18.2791 183.329 18.4707 183.221C18.6623 183.113 18.8739 183.043 19.0933 183.014C19.3127 182.986 19.5357 183 19.7495 183.056C19.9633 183.112 20.1637 183.208 20.3394 183.34L20.3399 183.34L20.3039 183.389L20.3409 183.34C20.6952 183.607 20.9271 183.999 20.9855 184.432C21.0439 184.865 20.9242 185.303 20.6526 185.65L13.8221 194.355C13.6641 194.556 13.4609 194.718 13.2284 194.83C12.9958 194.941 12.7401 194.999 12.4811 194.998L12.4796 195Z" fill="white"/>
<path d="M14 140C11.2311 140 8.52431 140.821 6.22202 142.359C3.91973 143.898 2.12532 146.084 1.06569 148.642C0.00606593 151.201 -0.271181 154.016 0.269012 156.731C0.809205 159.447 2.14257 161.942 4.1005 163.9C6.05844 165.857 8.55299 167.191 11.2687 167.731C13.9845 168.271 16.7994 167.994 19.3576 166.934C21.9157 165.875 24.1022 164.08 25.6406 161.778C27.1789 159.476 28 156.769 28 154C27.9958 150.288 26.5194 146.73 23.8948 144.105C21.2702 141.481 17.7117 140.004 14 140Z" fill="#673BB7"/>
<path d="M12.4796 160C12.1164 160.001 11.7628 159.886 11.4723 159.673L11.4543 159.66L7.66024 156.823C7.30536 156.557 7.07308 156.164 7.01452 155.731C6.95597 155.298 7.07593 154.86 7.348 154.513C7.62006 154.166 8.02196 153.939 8.46528 153.882C8.90859 153.824 9.357 153.942 9.71188 154.208L12.1694 156.049L17.9765 148.645C18.1111 148.473 18.2791 148.329 18.4707 148.221C18.6623 148.113 18.8739 148.043 19.0933 148.014C19.3127 147.986 19.5357 148 19.7495 148.056C19.9633 148.112 20.1637 148.208 20.3394 148.34L20.3399 148.34L20.3039 148.389L20.3409 148.34C20.6952 148.607 20.9271 148.999 20.9855 149.432C21.0439 149.865 20.9242 150.303 20.6526 150.65L13.8221 159.355C13.6641 159.556 13.4609 159.718 13.2284 159.83C12.9958 159.941 12.7401 159.999 12.4811 159.998L12.4796 160Z" fill="white"/>
<path d="M14 105C11.2311 105 8.52431 105.821 6.22202 107.359C3.91973 108.898 2.12532 111.084 1.06569 113.642C0.00606593 116.201 -0.271181 119.016 0.269012 121.731C0.809205 124.447 2.14257 126.942 4.1005 128.9C6.05844 130.857 8.55299 132.191 11.2687 132.731C13.9845 133.271 16.7994 132.994 19.3576 131.934C21.9157 130.875 24.1022 129.08 25.6406 126.778C27.1789 124.476 28 121.769 28 119C27.9958 115.288 26.5194 111.73 23.8948 109.105C21.2702 106.481 17.7117 105.004 14 105Z" fill="#673BB7"/>
<path d="M12.4796 125C12.1164 125.001 11.7628 124.886 11.4723 124.673L11.4543 124.66L7.66024 121.823C7.30536 121.557 7.07308 121.164 7.01452 120.731C6.95597 120.298 7.07593 119.86 7.348 119.513C7.62006 119.166 8.02196 118.939 8.46528 118.882C8.90859 118.824 9.357 118.942 9.71188 119.208L12.1694 121.049L17.9765 113.645C18.1111 113.473 18.2791 113.329 18.4707 113.221C18.6623 113.113 18.8739 113.043 19.0933 113.014C19.3127 112.986 19.5357 113 19.7495 113.056C19.9633 113.112 20.1637 113.208 20.3394 113.34L20.3399 113.34L20.3039 113.389L20.3409 113.34C20.6952 113.607 20.9271 113.999 20.9855 114.432C21.0439 114.865 20.9242 115.303 20.6526 115.65L13.8221 124.355C13.6641 124.556 13.4609 124.718 13.2284 124.83C12.9958 124.941 12.7401 124.999 12.4811 124.998L12.4796 125Z" fill="white"/>
<path d="M14 70C11.2311 70 8.52431 70.8211 6.22202 72.3594C3.91973 73.8978 2.12532 76.0843 1.06569 78.6424C0.00606593 81.2006 -0.271181 84.0155 0.269012 86.7312C0.809205 89.447 2.14257 91.9416 4.1005 93.8995C6.05844 95.8574 8.55299 97.1908 11.2687 97.731C13.9845 98.2712 16.7994 97.9939 19.3576 96.9343C21.9157 95.8747 24.1022 94.0803 25.6406 91.778C27.1789 89.4757 28 86.7689 28 84C27.9958 80.2883 26.5194 76.7298 23.8948 74.1052C21.2702 71.4806 17.7117 70.0042 14 70Z" fill="#673BB7"/>
<path d="M12.4796 90C12.1164 90.0006 11.7628 89.8857 11.4723 89.6728L11.4543 89.6596L7.66024 86.8231C7.30536 86.5571 7.07308 86.1644 7.01452 85.7311C6.95597 85.2978 7.07593 84.8595 7.348 84.5127C7.62006 84.1659 8.02196 83.9389 8.46528 83.8817C8.90859 83.8244 9.357 83.9417 9.71188 84.2076L12.1694 86.0494L17.9765 78.645C18.1111 78.4733 18.2791 78.3293 18.4707 78.221C18.6623 78.1128 18.8739 78.0425 19.0933 78.0142C19.3127 77.9859 19.5357 78.0001 19.7495 78.0559C19.9633 78.1118 20.1637 78.2084 20.3394 78.34L20.3399 78.3403L20.3039 78.3892L20.3409 78.3403C20.6952 78.6065 20.9271 78.9992 20.9855 79.4322C21.0439 79.8653 20.9242 80.3033 20.6526 80.6502L13.8221 89.3554C13.6641 89.556 13.4609 89.7183 13.2284 89.8298C12.9958 89.9412 12.7401 89.9988 12.4811 89.9981L12.4796 90Z" fill="white"/>
<path d="M14 35C11.2311 35 8.52431 35.8211 6.22202 37.3594C3.91973 38.8978 2.12532 41.0843 1.06569 43.6424C0.00606593 46.2006 -0.271181 49.0155 0.269012 51.7312C0.809205 54.447 2.14257 56.9416 4.1005 58.8995C6.05844 60.8574 8.55299 62.1908 11.2687 62.731C13.9845 63.2712 16.7994 62.9939 19.3576 61.9343C21.9157 60.8747 24.1022 59.0803 25.6406 56.778C27.1789 54.4757 28 51.7689 28 49C27.9958 45.2883 26.5194 41.7298 23.8948 39.1052C21.2702 36.4806 17.7117 35.0042 14 35Z" fill="#673BB7"/>
<path d="M12.4796 55C12.1164 55.0006 11.7628 54.8857 11.4723 54.6728L11.4543 54.6596L7.66024 51.8231C7.30536 51.5571 7.07308 51.1644 7.01452 50.7311C6.95597 50.2978 7.07593 49.8595 7.348 49.5127C7.62006 49.1659 8.02196 48.9389 8.46528 48.8817C8.90859 48.8244 9.357 48.9417 9.71188 49.2076L12.1694 51.0494L17.9765 43.645C18.1111 43.4733 18.2791 43.3293 18.4707 43.221C18.6623 43.1128 18.8739 43.0425 19.0933 43.0142C19.3127 42.9859 19.5357 43.0001 19.7495 43.0559C19.9633 43.1118 20.1637 43.2084 20.3394 43.34L20.3399 43.3403L20.3039 43.3892L20.3409 43.3403C20.6952 43.6065 20.9271 43.9992 20.9855 44.4322C21.0439 44.8653 20.9242 45.3033 20.6526 45.6502L13.8221 54.3554C13.6641 54.556 13.4609 54.7183 13.2284 54.8298C12.9958 54.9412 12.7401 54.9988 12.4811 54.9981L12.4796 55Z" fill="white"/>
<path d="M14 0C11.2311 0 8.52431 0.821073 6.22202 2.35941C3.91973 3.89775 2.12532 6.08427 1.06569 8.64244C0.00606593 11.2006 -0.271181 14.0155 0.269012 16.7312C0.809205 19.447 2.14257 21.9416 4.1005 23.8995C6.05844 25.8574 8.55299 27.1908 11.2687 27.731C13.9845 28.2712 16.7994 27.9939 19.3576 26.9343C21.9157 25.8747 24.1022 24.0803 25.6406 21.778C27.1789 19.4757 28 16.7689 28 14C27.9958 10.2883 26.5194 6.72978 23.8948 4.10519C21.2702 1.4806 17.7117 0.00424611 14 0Z" fill="#673BB7"/>
<path d="M12.4796 20C12.1164 20.0006 11.7628 19.8857 11.4723 19.6728L11.4543 19.6596L7.66024 16.8231C7.30536 16.5571 7.07308 16.1644 7.01452 15.7311C6.95597 15.2978 7.07593 14.8595 7.348 14.5127C7.62006 14.1659 8.02196 13.9389 8.46528 13.8817C8.90859 13.8244 9.357 13.9417 9.71188 14.2076L12.1694 16.0494L17.9765 8.645C18.1111 8.47334 18.2791 8.32928 18.4707 8.22104C18.6623 8.11281 18.8739 8.04251 19.0933 8.01418C19.3127 7.98586 19.5357 8.00005 19.7495 8.05595C19.9633 8.11184 20.1637 8.20836 20.3394 8.33997L20.3399 8.34033L20.3039 8.38923L20.3409 8.34033C20.6952 8.6065 20.9271 8.99918 20.9855 9.43222C21.0439 9.86526 20.9242 10.3033 20.6526 10.6502L13.8221 19.3554C13.6641 19.556 13.4609 19.7183 13.2284 19.8298C12.9958 19.9412 12.7401 19.9988 12.4811 19.9981L12.4796 20Z" fill="white"/>
</svg>
