<svg width="38" height="239" viewBox="0 0 38 239" fill="none" xmlns="http://www.w3.org/2000/svg">
<rect x="16" y="235" width="231" height="6" transform="rotate(-90 16 235)" fill="#673BB7"/>
<ellipse cx="19" cy="18.5" rx="19" ry="18.5" fill="#673BB7"/>
<path d="M16.8203 25V12.64L18.8403 14.56H14.4203V11H21.5403V25H16.8203Z" fill="white"/>
<ellipse cx="19" cy="85.5" rx="19" ry="18.5" fill="#673BB7"/>
<path d="M19.476 88.34L21.476 86.52C23.516 84.68 23.876 83.44 23.876 82.06C23.876 79.4 21.536 77.68 18.216 77.68C15.196 77.68 13.176 79 12.156 80.92L15.716 82.7C16.136 81.86 16.936 81.4 17.776 81.4C18.676 81.4 19.136 81.82 19.136 82.5C19.136 82.98 18.996 83.52 18.036 84.42L12.976 89.1V92H24.196V88.34H19.476Z" fill="white"/>
<ellipse cx="19" cy="154.5" rx="19" ry="18.5" fill="#673BB7"/>
<path d="M20.7974 152.54L23.3974 149.9V147H12.9574V150.56H17.9574L15.8974 152.66V155.56H17.7574C18.9574 155.56 19.4174 155.92 19.4174 156.52C19.4174 157.24 18.6574 157.6 17.5974 157.6C16.4174 157.6 15.0374 157.28 13.8374 156.58L12.2374 160.06C13.7374 160.9 15.8374 161.32 17.7574 161.32C22.2374 161.32 24.1574 158.92 24.1574 156.52C24.1574 154.58 22.9974 153.08 20.7974 152.54Z" fill="white"/>
<ellipse cx="19" cy="220.5" rx="19" ry="18.5" fill="#673BB7"/>
<path d="M25.5409 220.94H23.6809V218.8H19.2409V220.94H17.3409L22.6209 213H17.7809L11.8409 221.6V224.6H19.1009V227H23.6809V224.6H25.5409V220.94Z" fill="white"/>
</svg>
