<svg width="239" height="50" viewBox="0 0 239 50" fill="none" xmlns="http://www.w3.org/2000/svg">
<g filter="url(#filter0_d_3477_637)">
<path d="M20.98 4.8421H25.93C27.2153 4.8421 28.35 5.10263 29.3342 5.62368C30.3184 6.13316 31.0826 6.85105 31.6268 7.77737C32.1711 8.6921 32.4432 9.74 32.4432 10.9211C32.4432 12.1021 32.1711 13.1558 31.6268 14.0821C31.0826 14.9968 30.3184 15.7147 29.3342 16.2358C28.35 16.7453 27.2153 17 25.93 17H20.98V4.8421ZM25.8605 15.8884C26.9258 15.8884 27.8579 15.68 28.6568 15.2632C29.4558 14.8347 30.0753 14.25 30.5153 13.5089C30.9553 12.7563 31.1753 11.8937 31.1753 10.9211C31.1753 9.94842 30.9553 9.09158 30.5153 8.35053C30.0753 7.59789 29.4558 7.01316 28.6568 6.59631C27.8579 6.16789 26.9258 5.95368 25.8605 5.95368H22.2653V15.8884H25.8605ZM43.0235 12.8142H35.3814C35.4509 13.7637 35.8156 14.5337 36.4756 15.1242C37.1356 15.7032 37.9693 15.9926 38.9767 15.9926C39.544 15.9926 40.0651 15.8942 40.5398 15.6974C41.0146 15.4889 41.4256 15.1879 41.773 14.7942L42.4677 15.5932C42.0625 16.0795 41.553 16.45 40.9393 16.7047C40.3372 16.9595 39.6714 17.0868 38.9419 17.0868C38.004 17.0868 37.1704 16.89 36.4409 16.4963C35.723 16.0911 35.1614 15.5353 34.7561 14.8289C34.3509 14.1226 34.1482 13.3237 34.1482 12.4321C34.1482 11.5405 34.3393 10.7416 34.7214 10.0353C35.1151 9.32895 35.6477 8.77895 36.3193 8.38526C37.0025 7.99158 37.7667 7.79474 38.6119 7.79474C39.4572 7.79474 40.2156 7.99158 40.8872 8.38526C41.5588 8.77895 42.0856 9.32895 42.4677 10.0353C42.8498 10.73 43.0409 11.5289 43.0409 12.4321L43.0235 12.8142ZM38.6119 8.85421C37.7319 8.85421 36.9909 9.13789 36.3888 9.70526C35.7982 10.2611 35.4625 10.9905 35.3814 11.8937H41.8598C41.7788 10.9905 41.4372 10.2611 40.8351 9.70526C40.2446 9.13789 39.5035 8.85421 38.6119 8.85421ZM47.9998 17.0868C47.2588 17.0868 46.5467 16.9826 45.8635 16.7742C45.1919 16.5542 44.6651 16.2821 44.283 15.9579L44.8388 14.9853C45.2209 15.2863 45.7014 15.5353 46.2804 15.7321C46.8593 15.9174 47.4614 16.01 48.0867 16.01C48.9204 16.01 49.534 15.8826 49.9277 15.6279C50.333 15.3616 50.5356 14.9911 50.5356 14.5163C50.5356 14.1805 50.4256 13.92 50.2056 13.7347C49.9856 13.5379 49.7077 13.3932 49.3719 13.3005C49.0362 13.1963 48.5904 13.0979 48.0346 13.0053C47.2935 12.8663 46.6972 12.7274 46.2456 12.5884C45.794 12.4379 45.4062 12.1889 45.0819 11.8416C44.7693 11.4942 44.613 11.0137 44.613 10.4C44.613 9.63579 44.9314 9.01053 45.5683 8.52421C46.2051 8.03789 47.0909 7.79474 48.2256 7.79474C48.8162 7.79474 49.4067 7.87579 49.9972 8.03789C50.5877 8.18842 51.074 8.39105 51.4562 8.64579L50.9177 9.63579C50.1651 9.11474 49.2677 8.85421 48.2256 8.85421C47.4383 8.85421 46.8419 8.99316 46.4367 9.27105C46.043 9.54895 45.8462 9.91368 45.8462 10.3653C45.8462 10.7126 45.9562 10.9905 46.1762 11.1989C46.4077 11.4074 46.6914 11.5637 47.0272 11.6679C47.363 11.7605 47.8262 11.8589 48.4167 11.9632C49.1462 12.1021 49.7309 12.2411 50.1709 12.38C50.6109 12.5189 50.9872 12.7563 51.2998 13.0921C51.6125 13.4279 51.7688 13.8911 51.7688 14.4816C51.7688 15.2805 51.433 15.9174 50.7614 16.3921C50.1014 16.8553 49.1809 17.0868 47.9998 17.0868ZM62.0033 12.8142H54.3612C54.4306 13.7637 54.7954 14.5337 55.4554 15.1242C56.1154 15.7032 56.9491 15.9926 57.9564 15.9926C58.5238 15.9926 59.0448 15.8942 59.5196 15.6974C59.9943 15.4889 60.4054 15.1879 60.7527 14.7942L61.4475 15.5932C61.0422 16.0795 60.5327 16.45 59.9191 16.7047C59.3169 16.9595 58.6512 17.0868 57.9217 17.0868C56.9838 17.0868 56.1501 16.89 55.4206 16.4963C54.7027 16.0911 54.1412 15.5353 53.7359 14.8289C53.3306 14.1226 53.128 13.3237 53.128 12.4321C53.128 11.5405 53.3191 10.7416 53.7012 10.0353C54.0948 9.32895 54.6275 8.77895 55.2991 8.38526C55.9822 7.99158 56.7464 7.79474 57.5917 7.79474C58.4369 7.79474 59.1954 7.99158 59.8669 8.38526C60.5385 8.77895 61.0654 9.32895 61.4475 10.0353C61.8296 10.73 62.0206 11.5289 62.0206 12.4321L62.0033 12.8142ZM57.5917 8.85421C56.7117 8.85421 55.9706 9.13789 55.3685 9.70526C54.778 10.2611 54.4422 10.9905 54.3612 11.8937H60.8396C60.7585 10.9905 60.4169 10.2611 59.8148 9.70526C59.2243 9.13789 58.4833 8.85421 57.5917 8.85421ZM69.1854 7.79474C70.3317 7.79474 71.2406 8.13053 71.9122 8.8021C72.5954 9.4621 72.937 10.4289 72.937 11.7026V17H71.7038V11.8242C71.7038 10.8747 71.4664 10.1511 70.9917 9.65316C70.517 9.15526 69.8396 8.90632 68.9596 8.90632C67.9754 8.90632 67.1938 9.20158 66.6148 9.7921C66.0475 10.3711 65.7638 11.1758 65.7638 12.2063V17H64.5306V7.86421H65.7117V9.54895C66.0475 8.99316 66.5106 8.56474 67.1012 8.26368C67.7033 7.95105 68.398 7.79474 69.1854 7.79474ZM83.7921 7.86421L79.7279 17H78.46L74.4131 7.86421H75.6984L79.12 15.6453L82.5763 7.86421H83.7921ZM89.0086 17.0868C88.1286 17.0868 87.3354 16.89 86.6291 16.4963C85.9228 16.0911 85.367 15.5353 84.9617 14.8289C84.5565 14.1226 84.3538 13.3237 84.3538 12.4321C84.3538 11.5405 84.5565 10.7416 84.9617 10.0353C85.367 9.32895 85.9228 8.77895 86.6291 8.38526C87.3354 7.99158 88.1286 7.79474 89.0086 7.79474C89.8886 7.79474 90.6817 7.99158 91.3881 8.38526C92.0944 8.77895 92.6444 9.32895 93.0381 10.0353C93.4433 10.7416 93.6459 11.5405 93.6459 12.4321C93.6459 13.3237 93.4433 14.1226 93.0381 14.8289C92.6444 15.5353 92.0944 16.0911 91.3881 16.4963C90.6817 16.89 89.8886 17.0868 89.0086 17.0868ZM89.0086 15.9926C89.657 15.9926 90.2359 15.8479 90.7454 15.5584C91.2665 15.2574 91.6717 14.8347 91.9612 14.2905C92.2507 13.7463 92.3954 13.1268 92.3954 12.4321C92.3954 11.7374 92.2507 11.1179 91.9612 10.5737C91.6717 10.0295 91.2665 9.61263 90.7454 9.32316C90.2359 9.0221 89.657 8.87158 89.0086 8.87158C88.3602 8.87158 87.7754 9.0221 87.2544 9.32316C86.7449 9.61263 86.3396 10.0295 86.0386 10.5737C85.7491 11.1179 85.6044 11.7374 85.6044 12.4321C85.6044 13.1268 85.7491 13.7463 86.0386 14.2905C86.3396 14.8347 86.7449 15.2574 87.2544 15.5584C87.7754 15.8479 88.3602 15.9926 89.0086 15.9926ZM96.1636 4.11263H97.3967V17H96.1636V4.11263ZM108.505 7.86421L104.441 17H103.173L99.1258 7.86421H100.411L103.833 15.6453L107.289 7.86421H108.505ZM110.241 7.86421H111.475V17H110.241V7.86421ZM110.867 5.86684C110.612 5.86684 110.398 5.78 110.224 5.60632C110.05 5.43263 109.964 5.22421 109.964 4.98105C109.964 4.74947 110.05 4.54684 110.224 4.37316C110.398 4.19947 110.612 4.11263 110.867 4.11263C111.121 4.11263 111.336 4.19947 111.509 4.37316C111.683 4.53526 111.77 4.7321 111.77 4.96368C111.77 5.21842 111.683 5.43263 111.509 5.60632C111.336 5.78 111.121 5.86684 110.867 5.86684ZM126.3 7.79474C127.446 7.79474 128.343 8.12474 128.992 8.78474C129.652 9.44474 129.982 10.4174 129.982 11.7026V17H128.748V11.8242C128.748 10.8747 128.517 10.1511 128.054 9.65316C127.602 9.15526 126.96 8.90632 126.126 8.90632C125.176 8.90632 124.43 9.20158 123.885 9.7921C123.341 10.3711 123.069 11.1758 123.069 12.2063V17H121.836V11.8242C121.836 10.8747 121.604 10.1511 121.141 9.65316C120.69 9.15526 120.041 8.90632 119.196 8.90632C118.258 8.90632 117.511 9.20158 116.955 9.7921C116.411 10.3711 116.139 11.1758 116.139 12.2063V17H114.906V7.86421H116.087V9.53158C116.411 8.97579 116.863 8.54737 117.442 8.24632C118.021 7.94526 118.686 7.79474 119.439 7.79474C120.203 7.79474 120.863 7.95684 121.419 8.28105C121.986 8.60526 122.409 9.08579 122.687 9.72263C123.023 9.12053 123.503 8.65158 124.128 8.31579C124.765 7.96842 125.489 7.79474 126.3 7.79474ZM141.315 12.8142H133.672C133.742 13.7637 134.107 14.5337 134.767 15.1242C135.427 15.7032 136.26 15.9926 137.268 15.9926C137.835 15.9926 138.356 15.8942 138.831 15.6974C139.306 15.4889 139.717 15.1879 140.064 14.7942L140.759 15.5932C140.353 16.0795 139.844 16.45 139.23 16.7047C138.628 16.9595 137.962 17.0868 137.233 17.0868C136.295 17.0868 135.461 16.89 134.732 16.4963C134.014 16.0911 133.452 15.5353 133.047 14.8289C132.642 14.1226 132.439 13.3237 132.439 12.4321C132.439 11.5405 132.63 10.7416 133.012 10.0353C133.406 9.32895 133.939 8.77895 134.61 8.38526C135.293 7.99158 136.058 7.79474 136.903 7.79474C137.748 7.79474 138.507 7.99158 139.178 8.38526C139.85 8.77895 140.377 9.32895 140.759 10.0353C141.141 10.73 141.332 11.5289 141.332 12.4321L141.315 12.8142ZM136.903 8.85421C136.023 8.85421 135.282 9.13789 134.68 9.70526C134.089 10.2611 133.753 10.9905 133.672 11.8937H140.151C140.07 10.9905 139.728 10.2611 139.126 9.70526C138.536 9.13789 137.795 8.85421 136.903 8.85421ZM148.497 7.79474C149.643 7.79474 150.552 8.13053 151.223 8.8021C151.907 9.4621 152.248 10.4289 152.248 11.7026V17H151.015V11.8242C151.015 10.8747 150.778 10.1511 150.303 9.65316C149.828 9.15526 149.151 8.90632 148.271 8.90632C147.287 8.90632 146.505 9.20158 145.926 9.7921C145.359 10.3711 145.075 11.1758 145.075 12.2063V17H143.842V7.86421H145.023V9.54895C145.359 8.99316 145.822 8.56474 146.412 8.26368C147.015 7.95105 147.709 7.79474 148.497 7.79474ZM160.407 16.4442C160.176 16.6526 159.886 16.8147 159.539 16.9305C159.203 17.0347 158.85 17.0868 158.479 17.0868C157.622 17.0868 156.962 16.8553 156.499 16.3921C156.036 15.9289 155.805 15.2747 155.805 14.4295V8.90632H154.172V7.86421H155.805V5.86684H157.038V7.86421H159.817V8.90632H157.038V14.36C157.038 14.9042 157.171 15.3211 157.437 15.6105C157.715 15.8884 158.109 16.0274 158.618 16.0274C158.873 16.0274 159.116 15.9868 159.348 15.9058C159.591 15.8247 159.799 15.7089 159.973 15.5584L160.407 16.4442ZM166.064 17.0868C165.184 17.0868 164.391 16.89 163.685 16.4963C162.978 16.0911 162.422 15.5353 162.017 14.8289C161.612 14.1226 161.409 13.3237 161.409 12.4321C161.409 11.5405 161.612 10.7416 162.017 10.0353C162.422 9.32895 162.978 8.77895 163.685 8.38526C164.391 7.99158 165.184 7.79474 166.064 7.79474C166.944 7.79474 167.737 7.99158 168.443 8.38526C169.15 8.77895 169.7 9.32895 170.093 10.0353C170.499 10.7416 170.701 11.5405 170.701 12.4321C170.701 13.3237 170.499 14.1226 170.093 14.8289C169.7 15.5353 169.15 16.0911 168.443 16.4963C167.737 16.89 166.944 17.0868 166.064 17.0868ZM166.064 15.9926C166.712 15.9926 167.291 15.8479 167.801 15.5584C168.322 15.2574 168.727 14.8347 169.017 14.2905C169.306 13.7463 169.451 13.1268 169.451 12.4321C169.451 11.7374 169.306 11.1179 169.017 10.5737C168.727 10.0295 168.322 9.61263 167.801 9.32316C167.291 9.0221 166.712 8.87158 166.064 8.87158C165.416 8.87158 164.831 9.0221 164.31 9.32316C163.8 9.61263 163.395 10.0295 163.094 10.5737C162.805 11.1179 162.66 11.7374 162.66 12.4321C162.66 13.1268 162.805 13.7463 163.094 14.2905C163.395 14.8347 163.8 15.2574 164.31 15.5584C164.831 15.8479 165.416 15.9926 166.064 15.9926ZM186.101 4.11263V17H184.92V15.1937C184.55 15.8074 184.058 16.2763 183.444 16.6005C182.842 16.9247 182.159 17.0868 181.395 17.0868C180.538 17.0868 179.762 16.89 179.067 16.4963C178.373 16.1026 177.828 15.5526 177.435 14.8463C177.041 14.14 176.844 13.3353 176.844 12.4321C176.844 11.5289 177.041 10.7242 177.435 10.0179C177.828 9.31158 178.373 8.76737 179.067 8.38526C179.762 7.99158 180.538 7.79474 181.395 7.79474C182.136 7.79474 182.801 7.95105 183.392 8.26368C183.994 8.56474 184.486 9.01053 184.868 9.60105V4.11263H186.101ZM181.499 15.9926C182.136 15.9926 182.709 15.8479 183.218 15.5584C183.739 15.2574 184.145 14.8347 184.434 14.2905C184.735 13.7463 184.886 13.1268 184.886 12.4321C184.886 11.7374 184.735 11.1179 184.434 10.5737C184.145 10.0295 183.739 9.61263 183.218 9.32316C182.709 9.0221 182.136 8.87158 181.499 8.87158C180.85 8.87158 180.266 9.0221 179.745 9.32316C179.235 9.61263 178.83 10.0295 178.529 10.5737C178.239 11.1179 178.095 11.7374 178.095 12.4321C178.095 13.1268 178.239 13.7463 178.529 14.2905C178.83 14.8347 179.235 15.2574 179.745 15.5584C180.266 15.8479 180.85 15.9926 181.499 15.9926ZM197.491 12.8142H189.848C189.918 13.7637 190.283 14.5337 190.943 15.1242C191.603 15.7032 192.436 15.9926 193.444 15.9926C194.011 15.9926 194.532 15.8942 195.007 15.6974C195.482 15.4889 195.893 15.1879 196.24 14.7942L196.935 15.5932C196.529 16.0795 196.02 16.45 195.406 16.7047C194.804 16.9595 194.138 17.0868 193.409 17.0868C192.471 17.0868 191.637 16.89 190.908 16.4963C190.19 16.0911 189.628 15.5353 189.223 14.8289C188.818 14.1226 188.615 13.3237 188.615 12.4321C188.615 11.5405 188.806 10.7416 189.188 10.0353C189.582 9.32895 190.115 8.77895 190.786 8.38526C191.469 7.99158 192.234 7.79474 193.079 7.79474C193.924 7.79474 194.683 7.99158 195.354 8.38526C196.026 8.77895 196.553 9.32895 196.935 10.0353C197.317 10.73 197.508 11.5289 197.508 12.4321L197.491 12.8142ZM193.079 8.85421C192.199 8.85421 191.458 9.13789 190.856 9.70526C190.265 10.2611 189.929 10.9905 189.848 11.8937H196.327C196.246 10.9905 195.904 10.2611 195.302 9.70526C194.712 9.13789 193.971 8.85421 193.079 8.85421ZM24.4016 38.1737C23.4637 38.1737 22.5547 38.0405 21.6747 37.7742C20.8063 37.5079 20.1174 37.1547 19.6079 36.7147L20.3895 34.9605C20.8874 35.3542 21.4953 35.6784 22.2132 35.9332C22.9426 36.1763 23.6721 36.2979 24.4016 36.2979C25.3047 36.2979 25.9763 36.1532 26.4163 35.8637C26.8679 35.5742 27.0937 35.1921 27.0937 34.7174C27.0937 34.37 26.9663 34.0863 26.7116 33.8663C26.4684 33.6347 26.1558 33.4553 25.7737 33.3279C25.3916 33.2005 24.8705 33.0558 24.2105 32.8937C23.2842 32.6737 22.5316 32.4537 21.9526 32.2337C21.3853 32.0137 20.8932 31.6721 20.4763 31.2089C20.0711 30.7342 19.8684 30.0974 19.8684 29.2984C19.8684 28.6268 20.0479 28.0189 20.4068 27.4747C20.7774 26.9189 21.3274 26.4789 22.0568 26.1547C22.7979 25.8305 23.7011 25.6684 24.7663 25.6684C25.5074 25.6684 26.2368 25.7611 26.9547 25.9463C27.6726 26.1316 28.2921 26.3979 28.8132 26.7453L28.1011 28.4995C27.5684 28.1868 27.0126 27.9495 26.4337 27.7874C25.8547 27.6253 25.2932 27.5442 24.7489 27.5442C23.8574 27.5442 23.1916 27.6947 22.7516 27.9958C22.3232 28.2968 22.1089 28.6963 22.1089 29.1942C22.1089 29.5416 22.2305 29.8253 22.4737 30.0453C22.7284 30.2653 23.0468 30.4389 23.4289 30.5663C23.8111 30.6937 24.3321 30.8384 24.9921 31.0005C25.8953 31.2089 26.6363 31.4289 27.2153 31.6605C27.7942 31.8805 28.2863 32.2221 28.6916 32.6853C29.1084 33.1484 29.3168 33.7737 29.3168 34.5611C29.3168 35.2326 29.1316 35.8405 28.7611 36.3847C28.4021 36.9289 27.8521 37.3632 27.1111 37.6874C26.37 38.0116 25.4668 38.1737 24.4016 38.1737ZM31.3473 28.7253H33.5184V38H31.3473V28.7253ZM32.4415 27.1968C32.0478 27.1968 31.7178 27.0753 31.4515 26.8321C31.1852 26.5774 31.0521 26.2647 31.0521 25.8942C31.0521 25.5237 31.1852 25.2168 31.4515 24.9737C31.7178 24.7189 32.0478 24.5916 32.4415 24.5916C32.8352 24.5916 33.1652 24.7132 33.4315 24.9563C33.6978 25.1879 33.831 25.4832 33.831 25.8421C33.831 26.2242 33.6978 26.5484 33.4315 26.8147C33.1768 27.0695 32.8468 27.1968 32.4415 27.1968ZM41.9431 37.4963C41.6884 37.7047 41.3758 37.8611 41.0052 37.9653C40.6463 38.0695 40.2642 38.1216 39.8589 38.1216C38.84 38.1216 38.0526 37.8553 37.4968 37.3226C36.941 36.79 36.6631 36.0142 36.6631 34.9953V30.5316H35.1347V28.7947H36.6631V26.6758H38.8342V28.7947H41.3179V30.5316H38.8342V34.9432C38.8342 35.3947 38.9442 35.7421 39.1642 35.9853C39.3842 36.2168 39.7026 36.3326 40.1195 36.3326C40.6058 36.3326 41.011 36.2053 41.3352 35.9505L41.9431 37.4963ZM52.1427 33.4147C52.1427 33.5653 52.1312 33.7795 52.108 34.0574H44.8306C44.958 34.7405 45.288 35.2847 45.8206 35.69C46.3649 36.0837 47.0364 36.2805 47.8354 36.2805C48.8543 36.2805 49.6938 35.9447 50.3538 35.2732L51.5175 36.6105C51.1006 37.1084 50.5738 37.4847 49.937 37.7395C49.3001 37.9942 48.5822 38.1216 47.7833 38.1216C46.7643 38.1216 45.867 37.9189 45.0912 37.5137C44.3154 37.1084 43.7133 36.5468 43.2849 35.8289C42.868 35.0995 42.6596 34.2774 42.6596 33.3626C42.6596 32.4595 42.8622 31.6489 43.2675 30.9311C43.6843 30.2016 44.2575 29.6342 44.987 29.2289C45.7164 28.8237 46.5385 28.6211 47.4533 28.6211C48.3564 28.6211 49.1612 28.8237 49.8675 29.2289C50.5854 29.6226 51.1412 30.1842 51.5349 30.9137C51.9401 31.6316 52.1427 32.4653 52.1427 33.4147ZM47.4533 30.3579C46.7585 30.3579 46.168 30.5663 45.6817 30.9832C45.207 31.3884 44.9175 31.9326 44.8133 32.6158H50.0759C49.9833 31.9442 49.6996 31.4 49.2249 30.9832C48.7501 30.5663 48.1596 30.3579 47.4533 30.3579ZM57.094 38.1216C56.3413 38.1216 55.6061 38.0232 54.8882 37.8263C54.1703 37.6295 53.5971 37.3805 53.1687 37.0795L54.0024 35.4295C54.4192 35.7074 54.9171 35.9332 55.4961 36.1068C56.0866 36.2689 56.6655 36.35 57.2329 36.35C58.5298 36.35 59.1782 36.0084 59.1782 35.3253C59.1782 35.0011 59.0103 34.7753 58.6745 34.6479C58.3503 34.5205 57.8234 34.3989 57.094 34.2832C56.3298 34.1674 55.7045 34.0342 55.2182 33.8837C54.7434 33.7332 54.3266 33.4726 53.9677 33.1021C53.6203 32.72 53.4466 32.1932 53.4466 31.5216C53.4466 30.6416 53.8113 29.9411 54.5408 29.42C55.2819 28.8874 56.2777 28.6211 57.5282 28.6211C58.165 28.6211 58.8019 28.6963 59.4387 28.8468C60.0755 28.9858 60.5966 29.1768 61.0019 29.42L60.1682 31.07C59.3808 30.6068 58.495 30.3753 57.5108 30.3753C56.874 30.3753 56.3877 30.4737 56.0519 30.6705C55.7277 30.8558 55.5655 31.1047 55.5655 31.4174C55.5655 31.7647 55.7392 32.0137 56.0866 32.1642C56.4455 32.3032 56.9955 32.4363 57.7366 32.5637C58.4777 32.6795 59.0855 32.8126 59.5603 32.9632C60.035 33.1137 60.4403 33.3684 60.7761 33.7274C61.1234 34.0863 61.2971 34.5958 61.2971 35.2558C61.2971 36.1242 60.9208 36.8189 60.1682 37.34C59.4155 37.8611 58.3908 38.1216 57.094 38.1216ZM76.6858 33.4147C76.6858 33.5653 76.6742 33.7795 76.6511 34.0574H69.3737C69.5011 34.7405 69.8311 35.2847 70.3637 35.69C70.9079 36.0837 71.5795 36.2805 72.3785 36.2805C73.3974 36.2805 74.2369 35.9447 74.8969 35.2732L76.0606 36.6105C75.6437 37.1084 75.1169 37.4847 74.48 37.7395C73.8432 37.9942 73.1253 38.1216 72.3263 38.1216C71.3074 38.1216 70.41 37.9189 69.6342 37.5137C68.8585 37.1084 68.2563 36.5468 67.8279 35.8289C67.4111 35.0995 67.2027 34.2774 67.2027 33.3626C67.2027 32.4595 67.4053 31.6489 67.8106 30.9311C68.2274 30.2016 68.8006 29.6342 69.53 29.2289C70.2595 28.8237 71.0816 28.6211 71.9963 28.6211C72.8995 28.6211 73.7042 28.8237 74.4106 29.2289C75.1285 29.6226 75.6842 30.1842 76.0779 30.9137C76.4832 31.6316 76.6858 32.4653 76.6858 33.4147ZM71.9963 30.3579C71.3016 30.3579 70.7111 30.5663 70.2248 30.9832C69.75 31.3884 69.4606 31.9326 69.3563 32.6158H74.619C74.5263 31.9442 74.2427 31.4 73.7679 30.9832C73.2932 30.5663 72.7027 30.3579 71.9963 30.3579ZM87.5487 38.1737C86.6108 38.1737 85.7018 38.0405 84.8218 37.7742C83.9534 37.5079 83.2645 37.1547 82.755 36.7147L83.5366 34.9605C84.0345 35.3542 84.6424 35.6784 85.3603 35.9332C86.0897 36.1763 86.8192 36.2979 87.5487 36.2979C88.4518 36.2979 89.1234 36.1532 89.5634 35.8637C90.015 35.5742 90.2408 35.1921 90.2408 34.7174C90.2408 34.37 90.1134 34.0863 89.8587 33.8663C89.6155 33.6347 89.3029 33.4553 88.9208 33.3279C88.5387 33.2005 88.0176 33.0558 87.3576 32.8937C86.4313 32.6737 85.6787 32.4537 85.0997 32.2337C84.5324 32.0137 84.0403 31.6721 83.6234 31.2089C83.2182 30.7342 83.0155 30.0974 83.0155 29.2984C83.0155 28.6268 83.195 28.0189 83.5539 27.4747C83.9245 26.9189 84.4745 26.4789 85.2039 26.1547C85.945 25.8305 86.8482 25.6684 87.9134 25.6684C88.6545 25.6684 89.3839 25.7611 90.1018 25.9463C90.8197 26.1316 91.4392 26.3979 91.9603 26.7453L91.2482 28.4995C90.7155 28.1868 90.1597 27.9495 89.5808 27.7874C89.0018 27.6253 88.4403 27.5442 87.8961 27.5442C87.0045 27.5442 86.3387 27.6947 85.8987 27.9958C85.4703 28.2968 85.256 28.6963 85.256 29.1942C85.256 29.5416 85.3776 29.8253 85.6208 30.0453C85.8755 30.2653 86.1939 30.4389 86.5761 30.5663C86.9582 30.6937 87.4792 30.8384 88.1392 31.0005C89.0424 31.2089 89.7834 31.4289 90.3624 31.6605C90.9413 31.8805 91.4334 32.2221 91.8387 32.6853C92.2555 33.1484 92.4639 33.7737 92.4639 34.5611C92.4639 35.2326 92.2787 35.8405 91.9082 36.3847C91.5492 36.9289 90.9992 37.3632 90.2582 37.6874C89.5171 38.0116 88.6139 38.1737 87.5487 38.1737ZM98.6628 38.1216C97.725 38.1216 96.8797 37.9189 96.1271 37.5137C95.3744 37.1084 94.7839 36.5468 94.3555 35.8289C93.9386 35.0995 93.7302 34.2774 93.7302 33.3626C93.7302 32.4479 93.9386 31.6316 94.3555 30.9137C94.7839 30.1958 95.3744 29.6342 96.1271 29.2289C96.8797 28.8237 97.725 28.6211 98.6628 28.6211C99.6123 28.6211 100.463 28.8237 101.216 29.2289C101.969 29.6342 102.553 30.1958 102.97 30.9137C103.399 31.6316 103.613 32.4479 103.613 33.3626C103.613 34.2774 103.399 35.0995 102.97 35.8289C102.553 36.5468 101.969 37.1084 101.216 37.5137C100.463 37.9189 99.6123 38.1216 98.6628 38.1216ZM98.6628 36.2632C99.4618 36.2632 100.122 35.9968 100.643 35.4642C101.164 34.9316 101.424 34.2311 101.424 33.3626C101.424 32.4942 101.164 31.7937 100.643 31.2611C100.122 30.7284 99.4618 30.4621 98.6628 30.4621C97.8639 30.4621 97.2039 30.7284 96.6828 31.2611C96.1734 31.7937 95.9186 32.4942 95.9186 33.3626C95.9186 34.2311 96.1734 34.9316 96.6828 35.4642C97.2039 35.9968 97.8639 36.2632 98.6628 36.2632ZM105.689 25.1126H107.86V38H105.689V25.1126ZM119.689 28.7253V38H117.622V36.8189C117.275 37.2358 116.841 37.56 116.319 37.7916C115.798 38.0116 115.237 38.1216 114.635 38.1216C113.396 38.1216 112.417 37.78 111.699 37.0968C110.993 36.4021 110.64 35.3774 110.64 34.0226V28.7253H112.811V33.7274C112.811 34.5611 112.996 35.1863 113.367 35.6032C113.749 36.0084 114.287 36.2111 114.982 36.2111C115.758 36.2111 116.372 35.9737 116.823 35.4989C117.286 35.0126 117.518 34.3179 117.518 33.4147V28.7253H119.689ZM126.787 38.1216C125.826 38.1216 124.963 37.9189 124.199 37.5137C123.435 37.1084 122.838 36.5468 122.41 35.8289C121.982 35.0995 121.767 34.2774 121.767 33.3626C121.767 32.4479 121.982 31.6316 122.41 30.9137C122.838 30.1958 123.429 29.6342 124.182 29.2289C124.946 28.8237 125.814 28.6211 126.787 28.6211C127.702 28.6211 128.5 28.8063 129.184 29.1768C129.878 29.5474 130.399 30.08 130.747 30.7747L129.079 31.7474C128.813 31.3189 128.477 31.0005 128.072 30.7921C127.678 30.5721 127.244 30.4621 126.769 30.4621C125.959 30.4621 125.287 30.7284 124.755 31.2611C124.222 31.7821 123.956 32.4826 123.956 33.3626C123.956 34.2426 124.216 34.9489 124.737 35.4816C125.27 36.0026 125.947 36.2632 126.769 36.2632C127.244 36.2632 127.678 36.1589 128.072 35.9505C128.477 35.7305 128.813 35.4063 129.079 34.9779L130.747 35.9505C130.388 36.6453 129.861 37.1837 129.166 37.5658C128.483 37.9363 127.69 38.1216 126.787 38.1216ZM125.884 41.96C125.258 41.96 124.726 41.8384 124.286 41.5953L124.685 40.5705C125.044 40.7558 125.438 40.8484 125.866 40.8484C126.48 40.8484 126.787 40.64 126.787 40.2232C126.787 40.0495 126.712 39.9105 126.561 39.8063C126.41 39.7021 126.179 39.65 125.866 39.65H125.328L125.797 37.8784H126.978L126.735 38.8511C127.233 38.9089 127.609 39.0653 127.864 39.32C128.118 39.5863 128.246 39.9163 128.246 40.31C128.246 40.8079 128.032 41.2074 127.603 41.5084C127.175 41.8095 126.602 41.96 125.884 41.96ZM136.656 38.1216C135.718 38.1216 134.873 37.9189 134.12 37.5137C133.368 37.1084 132.777 36.5468 132.349 35.8289C131.932 35.0995 131.724 34.2774 131.724 33.3626C131.724 32.4479 131.932 31.6316 132.349 30.9137C132.777 30.1958 133.368 29.6342 134.12 29.2289C134.873 28.8237 135.718 28.6211 136.656 28.6211C137.606 28.6211 138.457 28.8237 139.209 29.2289C139.962 29.6342 140.547 30.1958 140.964 30.9137C141.392 31.6316 141.606 32.4479 141.606 33.3626C141.606 34.2774 141.392 35.0995 140.964 35.8289C140.547 36.5468 139.962 37.1084 139.209 37.5137C138.457 37.9189 137.606 38.1216 136.656 38.1216ZM136.656 36.2632C137.455 36.2632 138.115 35.9968 138.636 35.4642C139.157 34.9316 139.418 34.2311 139.418 33.3626C139.418 32.4942 139.157 31.7937 138.636 31.2611C138.115 30.7284 137.455 30.4621 136.656 30.4621C135.857 30.4621 135.197 30.7284 134.676 31.2611C134.167 31.7937 133.912 32.4942 133.912 33.3626C133.912 34.2311 134.167 34.9316 134.676 35.4642C135.197 35.9968 135.857 36.2632 136.656 36.2632ZM137.889 27.4574C137.6 27.4574 137.345 27.3995 137.125 27.2837C136.917 27.1679 136.656 26.9942 136.344 26.7626C136.158 26.6121 136.002 26.5021 135.875 26.4326C135.759 26.3516 135.643 26.3111 135.527 26.3111C135.284 26.3111 135.082 26.4037 134.919 26.5889C134.769 26.7742 134.688 27.0289 134.676 27.3532H133.513C133.524 26.6468 133.698 26.0853 134.034 25.6684C134.381 25.24 134.833 25.0258 135.388 25.0258C135.678 25.0258 135.927 25.0837 136.135 25.1995C136.355 25.3153 136.622 25.4889 136.934 25.7205C137.119 25.8711 137.27 25.9868 137.386 26.0679C137.513 26.1374 137.635 26.1721 137.75 26.1721C137.994 26.1721 138.19 26.0853 138.341 25.9116C138.503 25.7379 138.59 25.4947 138.602 25.1821H139.765C139.742 25.8653 139.563 26.4153 139.227 26.8321C138.891 27.2489 138.445 27.4574 137.889 27.4574ZM152.401 33.4147C152.401 33.5653 152.39 33.7795 152.367 34.0574H145.089C145.217 34.7405 145.547 35.2847 146.079 35.69C146.623 36.0837 147.295 36.2805 148.094 36.2805C149.113 36.2805 149.952 35.9447 150.612 35.2732L151.776 36.6105C151.359 37.1084 150.832 37.4847 150.195 37.7395C149.559 37.9942 148.841 38.1216 148.042 38.1216C147.023 38.1216 146.125 37.9189 145.35 37.5137C144.574 37.1084 143.972 36.5468 143.543 35.8289C143.127 35.0995 142.918 34.2774 142.918 33.3626C142.918 32.4595 143.121 31.6489 143.526 30.9311C143.943 30.2016 144.516 29.6342 145.245 29.2289C145.975 28.8237 146.797 28.6211 147.712 28.6211C148.615 28.6211 149.42 28.8237 150.126 29.2289C150.844 29.6226 151.4 30.1842 151.793 30.9137C152.199 31.6316 152.401 32.4653 152.401 33.4147ZM147.712 30.3579C147.017 30.3579 146.427 30.5663 145.94 30.9832C145.465 31.3884 145.176 31.9326 145.072 32.6158H150.334C150.242 31.9442 149.958 31.4 149.483 30.9832C149.009 30.5663 148.418 30.3579 147.712 30.3579ZM157.353 38.1216C156.6 38.1216 155.865 38.0232 155.147 37.8263C154.429 37.6295 153.856 37.3805 153.427 37.0795L154.261 35.4295C154.678 35.7074 155.176 35.9332 155.755 36.1068C156.345 36.2689 156.924 36.35 157.491 36.35C158.788 36.35 159.437 36.0084 159.437 35.3253C159.437 35.0011 159.269 34.7753 158.933 34.6479C158.609 34.5205 158.082 34.3989 157.353 34.2832C156.588 34.1674 155.963 34.0342 155.477 33.8837C155.002 33.7332 154.585 33.4726 154.226 33.1021C153.879 32.72 153.705 32.1932 153.705 31.5216C153.705 30.6416 154.07 29.9411 154.799 29.42C155.54 28.8874 156.536 28.6211 157.787 28.6211C158.424 28.6211 159.06 28.6963 159.697 28.8468C160.334 28.9858 160.855 29.1768 161.26 29.42L160.427 31.07C159.639 30.6068 158.754 30.3753 157.769 30.3753C157.133 30.3753 156.646 30.4737 156.31 30.6705C155.986 30.8558 155.824 31.1047 155.824 31.4174C155.824 31.7647 155.998 32.0137 156.345 32.1642C156.704 32.3032 157.254 32.4363 157.995 32.5637C158.736 32.6795 159.344 32.8126 159.819 32.9632C160.294 33.1137 160.699 33.3684 161.035 33.7274C161.382 34.0863 161.556 34.5958 161.556 35.2558C161.556 36.1242 161.179 36.8189 160.427 37.34C159.674 37.8611 158.649 38.1216 157.353 38.1216ZM168.434 25.8421H173.749C175.045 25.8421 176.198 26.0968 177.205 26.6063C178.212 27.1042 178.994 27.8163 179.55 28.7426C180.105 29.6574 180.383 30.7168 180.383 31.9211C180.383 33.1253 180.105 34.1905 179.55 35.1168C178.994 36.0316 178.212 36.7437 177.205 37.2532C176.198 37.7511 175.045 38 173.749 38H168.434V25.8421ZM173.644 36.0895C174.536 36.0895 175.318 35.9216 175.989 35.5858C176.672 35.2384 177.193 34.7521 177.552 34.1268C177.923 33.49 178.108 32.7547 178.108 31.9211C178.108 31.0874 177.923 30.3579 177.552 29.7326C177.193 29.0958 176.672 28.6095 175.989 28.2737C175.318 27.9263 174.536 27.7526 173.644 27.7526H170.692V36.0895H173.644ZM182.575 28.7253H184.746V38H182.575V28.7253ZM183.669 27.1968C183.275 27.1968 182.945 27.0753 182.679 26.8321C182.413 26.5774 182.279 26.2647 182.279 25.8942C182.279 25.5237 182.413 25.2168 182.679 24.9737C182.945 24.7189 183.275 24.5916 183.669 24.5916C184.063 24.5916 184.393 24.7132 184.659 24.9563C184.925 25.1879 185.058 25.4832 185.058 25.8421C185.058 26.2242 184.925 26.5484 184.659 26.8147C184.404 27.0695 184.074 27.1968 183.669 27.1968ZM196.801 28.7253V36.5932C196.801 39.8584 195.133 41.4911 191.798 41.4911C190.907 41.4911 190.062 41.3753 189.263 41.1437C188.464 40.9237 187.804 40.5995 187.283 40.1711L188.255 38.5384C188.661 38.8742 189.17 39.1405 189.784 39.3374C190.409 39.5458 191.04 39.65 191.677 39.65C192.696 39.65 193.443 39.4184 193.917 38.9553C194.392 38.4921 194.629 37.7858 194.629 36.8363V36.35C194.259 36.7553 193.807 37.0621 193.275 37.2705C192.742 37.4789 192.157 37.5832 191.521 37.5832C190.641 37.5832 189.842 37.3979 189.124 37.0274C188.417 36.6453 187.856 36.1126 187.439 35.4295C187.034 34.7463 186.831 33.9647 186.831 33.0847C186.831 32.2047 187.034 31.4289 187.439 30.7574C187.856 30.0742 188.417 29.5474 189.124 29.1768C189.842 28.8063 190.641 28.6211 191.521 28.6211C192.192 28.6211 192.8 28.7311 193.344 28.9511C193.9 29.1711 194.363 29.5068 194.734 29.9584V28.7253H196.801ZM191.851 35.7421C192.673 35.7421 193.344 35.4989 193.865 35.0126C194.398 34.5147 194.664 33.8721 194.664 33.0847C194.664 32.3089 194.398 31.6779 193.865 31.1916C193.344 30.7053 192.673 30.4621 191.851 30.4621C191.017 30.4621 190.334 30.7053 189.801 31.1916C189.28 31.6779 189.019 32.3089 189.019 33.0847C189.019 33.8721 189.28 34.5147 189.801 35.0126C190.334 35.4989 191.017 35.7421 191.851 35.7421ZM199.655 28.7253H201.826V38H199.655V28.7253ZM200.749 27.1968C200.355 27.1968 200.025 27.0753 199.759 26.8321C199.493 26.5774 199.36 26.2647 199.36 25.8942C199.36 25.5237 199.493 25.2168 199.759 24.9737C200.025 24.7189 200.355 24.5916 200.749 24.5916C201.143 24.5916 201.473 24.7132 201.739 24.9563C202.005 25.1879 202.138 25.4832 202.138 25.8421C202.138 26.2242 202.005 26.5484 201.739 26.8147C201.484 27.0695 201.154 27.1968 200.749 27.1968ZM210.251 37.4963C209.996 37.7047 209.683 37.8611 209.313 37.9653C208.954 38.0695 208.572 38.1216 208.166 38.1216C207.147 38.1216 206.36 37.8553 205.804 37.3226C205.248 36.79 204.971 36.0142 204.971 34.9953V30.5316H203.442V28.7947H204.971V26.6758H207.142V28.7947H209.625V30.5316H207.142V34.9432C207.142 35.3947 207.252 35.7421 207.472 35.9853C207.692 36.2168 208.01 36.3326 208.427 36.3326C208.913 36.3326 209.318 36.2053 209.643 35.9505L210.251 37.4963ZM215.58 28.6211C216.946 28.6211 217.988 28.9511 218.706 29.6111C219.436 30.2595 219.8 31.2437 219.8 32.5637V38H217.751V36.8711C217.484 37.2763 217.102 37.5889 216.604 37.8089C216.118 38.0174 215.528 38.1216 214.833 38.1216C214.138 38.1216 213.53 38.0058 213.009 37.7742C212.488 37.5311 212.083 37.2011 211.793 36.7842C211.516 36.3558 211.377 35.8753 211.377 35.3426C211.377 34.5089 211.683 33.8432 212.297 33.3453C212.922 32.8358 213.901 32.5811 215.232 32.5811H217.629V32.4421C217.629 31.7937 217.432 31.2958 217.039 30.9484C216.657 30.6011 216.083 30.4274 215.319 30.4274C214.798 30.4274 214.283 30.5084 213.773 30.6705C213.276 30.8326 212.853 31.0584 212.506 31.3479L211.654 29.7674C212.141 29.3968 212.726 29.1132 213.409 28.9163C214.092 28.7195 214.816 28.6211 215.58 28.6211ZM215.284 36.5411C215.829 36.5411 216.309 36.4195 216.726 36.1763C217.154 35.9216 217.456 35.5626 217.629 35.0995V34.0226H215.389C214.138 34.0226 213.513 34.4337 213.513 35.2558C213.513 35.6495 213.669 35.9621 213.982 36.1937C214.294 36.4253 214.729 36.5411 215.284 36.5411ZM222.587 28.7253H224.758V38H222.587V28.7253ZM223.681 27.1968C223.287 27.1968 222.957 27.0753 222.691 26.8321C222.424 26.5774 222.291 26.2647 222.291 25.8942C222.291 25.5237 222.424 25.2168 222.691 24.9737C222.957 24.7189 223.287 24.5916 223.681 24.5916C224.074 24.5916 224.404 24.7132 224.671 24.9563C224.937 25.1879 225.07 25.4832 225.07 25.8421C225.07 26.2242 224.937 26.5484 224.671 26.8147C224.416 27.0695 224.086 27.1968 223.681 27.1968ZM230.473 38.1216C229.72 38.1216 228.985 38.0232 228.267 37.8263C227.549 37.6295 226.976 37.3805 226.548 37.0795L227.381 35.4295C227.798 35.7074 228.296 35.9332 228.875 36.1068C229.466 36.2689 230.044 36.35 230.612 36.35C231.909 36.35 232.557 36.0084 232.557 35.3253C232.557 35.0011 232.389 34.7753 232.053 34.6479C231.729 34.5205 231.202 34.3989 230.473 34.2832C229.709 34.1674 229.083 34.0342 228.597 33.8837C228.122 33.7332 227.706 33.4726 227.347 33.1021C226.999 32.72 226.826 32.1932 226.826 31.5216C226.826 30.6416 227.19 29.9411 227.92 29.42C228.661 28.8874 229.657 28.6211 230.907 28.6211C231.544 28.6211 232.181 28.6963 232.818 28.8468C233.454 28.9858 233.976 29.1768 234.381 29.42L233.547 31.07C232.76 30.6068 231.874 30.3753 230.89 30.3753C230.253 30.3753 229.767 30.4737 229.431 30.6705C229.107 30.8558 228.944 31.1047 228.944 31.4174C228.944 31.7647 229.118 32.0137 229.466 32.1642C229.824 32.3032 230.374 32.4363 231.116 32.5637C231.857 32.6795 232.464 32.8126 232.939 32.9632C233.414 33.1137 233.819 33.3684 234.155 33.7274C234.502 34.0863 234.676 34.5958 234.676 35.2558C234.676 36.1242 234.3 36.8189 233.547 37.34C232.794 37.8611 231.77 38.1216 230.473 38.1216Z" fill="white"/>
</g>
<rect y="2" width="2" height="38" fill="#C4C4C4"/>
<defs>
<filter id="filter0_d_3477_637" x="15.6074" y="4.11255" width="223.068" height="45.8474" filterUnits="userSpaceOnUse" color-interpolation-filters="sRGB">
<feFlood flood-opacity="0" result="BackgroundImageFix"/>
<feColorMatrix in="SourceAlpha" type="matrix" values="0 0 0 0 0 0 0 0 0 0 0 0 0 0 0 0 0 0 127 0" result="hardAlpha"/>
<feOffset dy="4"/>
<feGaussianBlur stdDeviation="2"/>
<feColorMatrix type="matrix" values="0 0 0 0 0 0 0 0 0 0 0 0 0 0 0 0 0 0 0.25 0"/>
<feBlend mode="normal" in2="BackgroundImageFix" result="effect1_dropShadow_3477_637"/>
<feBlend mode="normal" in="SourceGraphic" in2="effect1_dropShadow_3477_637" result="shape"/>
</filter>
</defs>
</svg>
