<svg width="114" height="46" viewBox="0 0 114 46" fill="none" xmlns="http://www.w3.org/2000/svg">
<g filter="url(#filter0_d_2713_912)">
<rect x="4.5" y="33.8704" width="105" height="2.92593" stroke="white"/>
<rect x="4" y="33.3704" width="75.9012" height="3.92593" fill="white"/>
<path d="M17.2669 21.117V24H8.23607V21.117H17.2669ZM9.43115 6.06158V24H5.73504V6.06158H9.43115ZM33.308 14.6119V15.462C33.308 16.8255 33.1232 18.0493 32.7536 19.1335C32.384 20.2177 31.8624 21.1417 31.1889 21.9055C30.5154 22.6612 29.7104 23.2402 28.7741 23.6427C27.846 24.0452 26.8152 24.2464 25.6817 24.2464C24.5564 24.2464 23.5256 24.0452 22.5893 23.6427C21.6611 23.2402 20.8562 22.6612 20.1745 21.9055C19.4928 21.1417 18.963 20.2177 18.5852 19.1335C18.2156 18.0493 18.0307 16.8255 18.0307 15.462V14.6119C18.0307 13.2402 18.2156 12.0164 18.5852 10.9404C18.9548 9.85624 19.4763 8.93222 20.1498 8.16836C20.8316 7.40449 21.6365 6.82133 22.5646 6.41887C23.501 6.0164 24.5318 5.81517 25.657 5.81517C26.7905 5.81517 27.8213 6.0164 28.7494 6.41887C29.6858 6.82133 30.4907 7.40449 31.1642 8.16836C31.846 8.93222 32.3716 9.85624 32.7412 10.9404C33.1191 12.0164 33.308 13.2402 33.308 14.6119ZM29.5749 15.462V14.5873C29.5749 13.6345 29.4887 12.7967 29.3162 12.0739C29.1437 11.3511 28.8891 10.7433 28.5523 10.2505C28.2156 9.75768 27.8049 9.38807 27.3203 9.14166C26.8357 8.88704 26.2813 8.75973 25.657 8.75973C25.0328 8.75973 24.4784 8.88704 23.9938 9.14166C23.5174 9.38807 23.1108 9.75768 22.7741 10.2505C22.4455 10.7433 22.195 11.3511 22.0225 12.0739C21.8501 12.7967 21.7638 13.6345 21.7638 14.5873V15.462C21.7638 16.4066 21.8501 17.2443 22.0225 17.9754C22.195 18.6981 22.4496 19.3101 22.7864 19.8111C23.1232 20.3039 23.5338 20.6776 24.0184 20.9322C24.503 21.1869 25.0575 21.3142 25.6817 21.3142C26.3059 21.3142 26.8603 21.1869 27.3449 20.9322C27.8295 20.6776 28.2361 20.3039 28.5646 19.8111C28.8932 19.3101 29.1437 18.6981 29.3162 17.9754C29.4887 17.2443 29.5749 16.4066 29.5749 15.462ZM42.9918 9.12934L38.1129 24H34.1827L40.848 6.06158H43.3491L42.9918 9.12934ZM47.0452 24L42.154 9.12934L41.7597 6.06158H44.2854L50.9877 24H47.0452ZM46.8234 17.3224V20.2177H37.349V17.3224H46.8234ZM58.1581 24H54.2526L54.2772 21.117H58.1581C59.1273 21.117 59.9446 20.8994 60.6099 20.4641C61.2752 20.0205 61.7762 19.3758 62.1129 18.5298C62.4579 17.6838 62.6304 16.6612 62.6304 15.462V14.5873C62.6304 13.6673 62.5318 12.8583 62.3347 12.1601C62.1458 11.462 61.8624 10.8747 61.4846 10.3983C61.1068 9.92195 60.6427 9.56466 60.0924 9.32647C59.5421 9.08006 58.9097 8.95686 58.1951 8.95686H54.1786V6.06158H58.1951C59.3943 6.06158 60.4908 6.26692 61.4846 6.67759C62.4867 7.08006 63.3532 7.65911 64.0842 8.41476C64.8152 9.17041 65.3778 10.0739 65.7721 11.1252C66.1746 12.1684 66.3758 13.3306 66.3758 14.6119V15.462C66.3758 16.7351 66.1746 17.8973 65.7721 18.9487C65.3778 20 64.8152 20.9035 64.0842 21.6591C63.3614 22.4066 62.4949 22.9856 61.4846 23.3963C60.4826 23.7988 59.3737 24 58.1581 24ZM56.347 6.06158V24H52.6509V6.06158H56.347ZM72.9918 6.06158V24H69.308V6.06158H72.9918ZM91.0534 6.06158V24H87.3573L80.1499 11.9753V24H76.4538V6.06158H80.1499L87.3697 18.0986V6.06158H91.0534ZM108.487 14.6242V21.7331C108.207 22.0698 107.776 22.4353 107.193 22.8296C106.61 23.2156 105.858 23.5483 104.938 23.8275C104.019 24.1068 102.906 24.2464 101.6 24.2464C100.442 24.2464 99.3861 24.0575 98.4333 23.6797C97.4806 23.2936 96.6592 22.731 95.9693 21.9918C95.2875 21.2526 94.7619 20.3491 94.3923 19.2813C94.0226 18.2053 93.8378 16.9774 93.8378 15.5975V14.4764C93.8378 13.0965 94.0144 11.8686 94.3676 10.7926C94.729 9.71661 95.2424 8.80901 95.9077 8.06979C96.573 7.33057 97.3656 6.76794 98.2855 6.3819C99.2054 5.99587 100.228 5.80285 101.353 5.80285C102.914 5.80285 104.195 6.05747 105.197 6.56671C106.199 7.06774 106.963 7.76589 107.489 8.66117C108.023 9.54823 108.351 10.5667 108.474 11.7166H104.889C104.799 11.1088 104.626 10.579 104.372 10.1273C104.117 9.67554 103.752 9.32236 103.275 9.06774C102.807 8.81312 102.199 8.68581 101.452 8.68581C100.836 8.68581 100.285 8.81312 99.8009 9.06774C99.3245 9.31415 98.922 9.67965 98.5935 10.1643C98.2649 10.6489 98.0144 11.2484 97.8419 11.963C97.6695 12.6776 97.5832 13.5072 97.5832 14.4517V15.5975C97.5832 16.5339 97.6736 17.3634 97.8543 18.0862C98.035 18.8008 98.3019 19.4045 98.6551 19.8973C99.0165 20.3819 99.46 20.7474 99.9857 20.9938C100.511 21.2402 101.123 21.3634 101.821 21.3634C102.405 21.3634 102.889 21.3142 103.275 21.2156C103.669 21.117 103.986 20.9979 104.224 20.8583C104.47 20.7105 104.659 20.5708 104.791 20.4394V17.2608H101.415V14.6242H108.487Z" fill="white"/>
</g>
<defs>
<filter id="filter0_d_2713_912" x="0" y="5.80273" width="114" height="39.4937" filterUnits="userSpaceOnUse" color-interpolation-filters="sRGB">
<feFlood flood-opacity="0" result="BackgroundImageFix"/>
<feColorMatrix in="SourceAlpha" type="matrix" values="0 0 0 0 0 0 0 0 0 0 0 0 0 0 0 0 0 0 127 0" result="hardAlpha"/>
<feOffset dy="4"/>
<feGaussianBlur stdDeviation="2"/>
<feComposite in2="hardAlpha" operator="out"/>
<feColorMatrix type="matrix" values="0 0 0 0 0 0 0 0 0 0 0 0 0 0 0 0 0 0 0.25 0"/>
<feBlend mode="normal" in2="BackgroundImageFix" result="effect1_dropShadow_2713_912"/>
<feBlend mode="normal" in="SourceGraphic" in2="effect1_dropShadow_2713_912" result="shape"/>
</filter>
</defs>
</svg>
