<svg width="23" height="25" viewBox="0 0 23 25" fill="none" xmlns="http://www.w3.org/2000/svg">
<g clip-path="url(#clip0_2713_886)">
<path d="M20.3164 0.986328H3.16776C1.72045 0.986328 0.542969 2.20306 0.542969 3.69861V21.4188C0.542969 22.9144 1.72045 24.1311 3.16776 24.1311H20.3164C21.7637 24.1311 22.9412 22.9144 22.9412 21.4188V3.69861C22.9412 2.20306 21.7637 0.986328 20.3164 0.986328ZM21.1913 21.4188C21.1913 21.9174 20.7988 22.3229 20.3164 22.3229H15.3293V14.9546H18.0324L18.479 12.1519H15.3293V10.2081C15.3293 9.44073 15.8991 8.85194 16.6417 8.85194H18.4353V6.04925H16.6417C14.414 6.04925 12.618 7.91395 12.618 10.2159V12.1519H9.9922V14.9546H12.618V22.3229H3.16776C2.68532 22.3229 2.29283 21.9174 2.29283 21.4188V3.69861C2.29283 3.20009 2.68532 2.79452 3.16776 2.79452H20.3164C20.7988 2.79452 21.1913 3.20009 21.1913 3.69861V21.4188Z" fill="#CCCCCC"/>
</g>
<defs>
<clipPath id="clip0_2713_886">
<rect width="22.3982" height="23.1448" fill="white" transform="translate(0.542969 0.986328)"/>
</clipPath>
</defs>
</svg>
