<svg width="30" height="30" viewBox="0 0 30 30" fill="none" xmlns="http://www.w3.org/2000/svg">
<g clip-path="url(#clip0_2713_890)">
<path d="M27.3762 4.43286H2.76151C1.3142 4.43286 0.136719 5.61034 0.136719 7.05765V22.8064C0.136719 24.2537 1.3142 25.4312 2.76151 25.4312H27.3762C28.8235 25.4312 30.001 24.2537 30.001 22.8064V7.05765C30.001 5.61034 28.8235 4.43286 27.3762 4.43286ZM24.5318 6.18272L15.0688 15.598L5.6059 6.18272H24.5318ZM3.57811 23.6813H2.76151C2.27907 23.6813 1.88658 23.2888 1.88658 22.8064V9.88694L3.57811 11.5532V23.6813ZM24.6931 23.6813H5.26964V13.2942L11.9754 19.9249C12.7999 20.7505 13.8985 21.2052 15.0688 21.2052C16.2392 21.2052 17.3378 20.7505 18.1603 19.9269L24.6931 13.4438V23.6813ZM28.2511 22.8064C28.2511 23.2888 27.8586 23.6813 27.3762 23.6813H26.4429V11.7028L28.2511 9.88694V22.8064ZM28.2511 7.41853L16.9242 18.6884C16.4303 19.1829 15.7714 19.4553 15.0688 19.4553C14.3663 19.4553 13.7075 19.183 13.2115 18.6865L1.88658 7.41853V7.05765C1.88658 6.57521 2.27907 6.18272 2.76151 6.18272H3.12495L15.0688 18.0665L27.0127 6.18272H27.3762C27.8586 6.18272 28.2511 6.57521 28.2511 7.05765V7.41853Z" fill="#CCCCCC"/>
</g>
<defs>
<clipPath id="clip0_2713_890">
<rect width="29.8643" height="29.8643" fill="white" transform="translate(0.136719)"/>
</clipPath>
</defs>
</svg>
