<svg width="23" height="25" viewBox="0 0 23 25" fill="none" xmlns="http://www.w3.org/2000/svg">
<g clip-path="url(#clip0_2713_894)">
<path d="M16.2318 0.986328H6.84617C3.25856 0.986328 0.339844 4.00234 0.339844 7.70953V17.4079C0.339844 21.1151 3.25856 24.1311 6.84617 24.1311H16.2317C19.8193 24.1311 22.738 21.1151 22.738 17.408V7.70953C22.738 4.00234 19.8193 0.986328 16.2318 0.986328ZM20.9882 17.4079C20.9882 20.1181 18.8544 22.3229 16.2318 22.3229H6.84617C4.22344 22.3229 2.0897 20.1181 2.0897 17.408V7.70953C2.0897 4.99937 4.22344 2.79452 6.84617 2.79452H16.2317C18.8544 2.79452 20.9882 4.99937 20.9882 7.70953V17.4079Z" fill="#CCCCCC"/>
<path d="M11.539 6.32056C8.21012 6.32056 5.50195 9.119 5.50195 12.5588C5.50195 15.9986 8.21012 18.797 11.539 18.797C14.8678 18.797 17.576 15.9986 17.576 12.5588C17.576 9.119 14.8678 6.32056 11.539 6.32056ZM11.539 16.9889C9.17504 16.9889 7.25181 15.0015 7.25181 12.5588C7.25181 10.1161 9.17504 8.12874 11.539 8.12874C13.9029 8.12874 15.8261 10.1161 15.8261 12.5588C15.8261 15.0015 13.9029 16.9889 11.539 16.9889Z" fill="#CCCCCC"/>
<path d="M17.664 7.13412C18.1472 7.13412 18.5389 6.72934 18.5389 6.23002C18.5389 5.7307 18.1472 5.32593 17.664 5.32593C17.1808 5.32593 16.7891 5.7307 16.7891 6.23002C16.7891 6.72934 17.1808 7.13412 17.664 7.13412Z" fill="#CCCCCC"/>
</g>
<defs>
<clipPath id="clip0_2713_894">
<rect width="22.3982" height="23.1448" fill="white" transform="translate(0.339844 0.986328)"/>
</clipPath>
</defs>
</svg>
