<svg width="24" height="25" viewBox="0 0 24 25" fill="none" xmlns="http://www.w3.org/2000/svg">
<g clip-path="url(#clip0_2713_881)">
<path d="M6.8259 9.16846H4.11362C3.73909 9.16846 3.43555 9.472 3.43555 9.84653V20.6956C3.43555 21.0702 3.73909 21.3737 4.11362 21.3737H6.8259C7.20043 21.3737 7.50397 21.0702 7.50397 20.6956V9.84653C7.50397 9.472 7.20043 9.16846 6.8259 9.16846ZM6.14783 20.0176H4.79169V10.5246H6.14783V20.0176Z" fill="#CCCCCC"/>
<path d="M5.46976 3.7439C4.34812 3.7439 3.43555 4.65647 3.43555 5.77811C3.43555 6.89975 4.34812 7.81232 5.46976 7.81232C6.5914 7.81232 7.50397 6.89975 7.50397 5.77811C7.50397 4.65647 6.5914 3.7439 5.46976 3.7439ZM5.46976 6.45618C5.09594 6.45618 4.79169 6.15193 4.79169 5.77811C4.79169 5.40429 5.09594 5.10004 5.46976 5.10004C5.84358 5.10004 6.14783 5.40429 6.14783 5.77811C6.14783 6.15193 5.84358 6.45618 5.46976 6.45618Z" fill="#CCCCCC"/>
<path d="M16.0759 9.2102C14.968 9.03045 13.834 9.24128 12.9234 9.76802C12.8844 9.4304 12.5976 9.16835 12.2497 9.16835H9.53745C9.16292 9.16835 8.85938 9.4719 8.85938 9.84643V20.6955C8.85938 21.0701 9.16292 21.3736 9.53745 21.3736H12.2497C12.6243 21.3736 12.9278 21.0701 12.9278 20.6955V14.5929C12.9278 13.8451 13.5361 13.2368 14.2839 13.2368C15.0318 13.2368 15.6401 13.8451 15.6401 14.5929V20.6955C15.6401 21.0701 15.9436 21.3736 16.3181 21.3736H19.0304C19.405 21.3736 19.7085 21.0701 19.7085 20.6955V13.3968C19.7085 11.3717 18.2773 9.56743 16.0759 9.2102ZM18.3524 20.0175H16.9962V14.5929C16.9962 13.0973 15.7796 11.8806 14.2839 11.8806C12.7883 11.8806 11.5717 13.0973 11.5717 14.5929V20.0175H10.2155V10.5245H11.5717V11.2026C11.5717 11.4768 11.7369 11.724 11.9903 11.8291C12.2435 11.934 12.5353 11.8759 12.7291 11.682L13.0454 11.3657C13.7111 10.7002 14.8154 10.3795 15.8587 10.5489C17.4548 10.8079 18.3524 12.0834 18.3524 13.3968V20.0175Z" fill="#CCCCCC"/>
<path d="M19.7092 0.986328H3.43556C1.56027 0.986328 0 2.54783 0 4.42188V20.6956C0 22.5709 1.5615 24.1311 3.43556 24.1311H19.7092C21.5845 24.1311 23.1448 22.5696 23.1448 20.6956V4.42188C23.1448 2.5466 21.5833 0.986328 19.7092 0.986328ZM21.7887 20.6956C21.7887 21.8227 20.8364 22.775 19.7092 22.775H3.43556C2.30844 22.775 1.35614 21.8227 1.35614 20.6956V4.42188C1.35614 3.29477 2.30844 2.34247 3.43556 2.34247H19.7092C20.8364 2.34247 21.7887 3.29477 21.7887 4.42188V20.6956Z" fill="#CCCCCC"/>
</g>
<defs>
<clipPath id="clip0_2713_881">
<rect width="23.1448" height="23.1448" fill="white" transform="translate(0 0.986328)"/>
</clipPath>
</defs>
</svg>
